<svg id="Group_6" data-name="Group 6" xmlns="http://www.w3.org/2000/svg" width="60" height="60" viewBox="0 0 60 60">
  <rect id="Rectangle_5" data-name="Rectangle 5" width="59" height="59" transform="translate(0.5 0.5)" fill="none" stroke="#555050" stroke-width="1"/>
  <path id="Path_28" data-name="Path 28" d="M10.8,18.038a1.1,1.1,0,0,0,1.1-1.1V8.9h8.116a1.1,1.1,0,1,0,0-2.2H10.8A1.1,1.1,0,0,0,9.7,7.8v9.138A1.1,1.1,0,0,0,10.8,18.038Z" fill="#585858" stroke="#585858" stroke-width="1"/>
  <path id="Path_29" data-name="Path 29" d="M39.983,6.7a1.1,1.1,0,0,0,0,2.2H48.1v8.038a1.1,1.1,0,1,0,2.2,0V7.8a1.1,1.1,0,0,0-1.1-1.1Z" fill="#585858" stroke="#585858" stroke-width="1"/>
  <path id="Path_30" data-name="Path 30" d="M39.983,48.5H49.2a1.1,1.1,0,0,0,1.1-1.1V38.262a1.1,1.1,0,1,0-2.2,0V46.3H39.983a1.1,1.1,0,0,0,0,2.2Z" fill="#585858" stroke="#585858" stroke-width="1"/>
  <path id="Path_31" data-name="Path 31" d="M10.8,48.5h9.216a1.1,1.1,0,1,0,0-2.2H11.9V38.262a1.1,1.1,0,1,0-2.2,0V47.4A1.1,1.1,0,0,0,10.8,48.5Z" fill="#585858" stroke="#585858" stroke-width="1"/>
  <path id="Path_32" data-name="Path 32" d="M18.1,24.6a27.622,27.622,0,0,0,3.374,13.892C23.573,42.031,26.56,44.3,30,44.3s6.424-2.269,8.526-5.808A27.622,27.622,0,0,0,41.9,24.6a11.9,11.9,0,1,0-23.8,0Zm21.6,0a25.808,25.808,0,0,1-2.927,12.475C34.965,40.262,32.549,42.1,30,42.1s-4.967-1.838-6.773-5.025A25.809,25.809,0,0,1,20.3,24.6a9.7,9.7,0,1,1,19.4,0Z" fill="#585858" stroke="#585858" stroke-width="1"/>
  <path id="Path_33" data-name="Path 33" d="M29.9,28.2a3.055,3.055,0,0,0-.808-2.35A2.167,2.167,0,0,0,27.6,25.3H22.8a1.1,1.1,0,1,0,0,2.2h4.81a.676.676,0,0,1,.039.121,2.6,2.6,0,0,1,.051.579v6a1.1,1.1,0,0,0,1.1,1.1h2.4a1.1,1.1,0,0,0,0-2.2H29.9Z" fill="#585858" stroke="#585858" stroke-width="1"/>
  <path id="Path_34" data-name="Path 34" d="M32.4,27.5h4.8a1.1,1.1,0,0,0,0-2.2H32.4a1.1,1.1,0,0,0,0,2.2Z" fill="#585858" stroke="#585858" stroke-width="1"/>
</svg>
