<svg id="Group_9" data-name="Group 9" xmlns="http://www.w3.org/2000/svg" xmlns:xlink="http://www.w3.org/1999/xlink" width="255" height="60" viewBox="0 0 255 60">
  <defs>
    <clipPath id="clip-path">
      <rect id="Rectangle_8" data-name="Rectangle 8" width="58.619" height="56" transform="translate(71.43)" fill="#fff"/>
    </clipPath>
  </defs>
  <rect id="Rectangle_7" data-name="Rectangle 7" width="254" height="59" transform="translate(0.5 0.5)" fill="none" stroke="#676767" stroke-width="1"/>
  <path id="Path_43" data-name="Path 43" d="M10.424,51.167V42.9l0-.021a5.83,5.83,0,0,1,.824-2.538,5.766,5.766,0,0,1,1.86-1.892,47.437,47.437,0,0,1,5.98-2.828c2.623-1.1,5.49-2.23,7.391-2.956Zm0,0H9.5V42.932a6.789,6.789,0,0,1,.914-3,6.7,6.7,0,0,1,2.171-2.263h0l.01-.007a49.777,49.777,0,0,1,6.341-3c2.684-1.124,5.4-2.182,6.6-2.645l.32-.123V30.611l-.284-.136a9.326,9.326,0,0,1-4-4.189,12.821,12.821,0,0,1-1.486-5.731V14.722a9.54,9.54,0,0,1,2.679-6.173A8.91,8.91,0,0,1,29.206,5.5h1.924a8.91,8.91,0,0,1,6.443,3.049,9.54,9.54,0,0,1,2.679,6.173v2.417h-.924V14.722A8.519,8.519,0,0,0,36.9,9.18a8.058,8.058,0,0,0-5.769-2.735H29.206A8.058,8.058,0,0,0,23.437,9.18a8.519,8.519,0,0,0-2.428,5.542v5.833A11.909,11.909,0,0,0,22.5,26.029a7.917,7.917,0,0,0,3.971,3.8A.464.464,0,0,1,26.7,30a.48.48,0,0,1,.086.274v1.943h0a.48.48,0,0,1-.083.269.464.464,0,0,1-.216.171Z" fill="#585858" stroke="#585858" stroke-width="1"/>
  <path id="Path_44" data-name="Path 44" d="M17.2,51.167v-7.75h.924v7.75Z" fill="#585858" stroke="#585858" stroke-width="1"/>
  <path id="Path_45" data-name="Path 45" d="M49.877,43.889v.5h3.387a1.414,1.414,0,0,1,1.005.421,1.455,1.455,0,0,1,.419,1.023v3.889a1.455,1.455,0,0,1-.419,1.023,1.414,1.414,0,0,1-1.005.421h-7.7a1.414,1.414,0,0,1-1.005-.421,1.455,1.455,0,0,1-.419-1.023V45.833a1.455,1.455,0,0,1,.419-1.023,1.414,1.414,0,0,1,1.005-.421h3.387V40.472H34.481v3.917h3.387a1.414,1.414,0,0,1,1.005.421,1.455,1.455,0,0,1,.419,1.023v3.889a1.455,1.455,0,0,1-.419,1.023,1.415,1.415,0,0,1-1.005.421h-7.7a1.415,1.415,0,0,1-1.005-.421,1.455,1.455,0,0,1-.419-1.023V45.833a1.455,1.455,0,0,1,.419-1.023,1.415,1.415,0,0,1,1.005-.421h3.387V40a.477.477,0,0,1,.137-.336.457.457,0,0,1,.325-.137h7.235V36.583H37.868a1.415,1.415,0,0,1-1.005-.421,1.455,1.455,0,0,1-.419-1.023V31.25a1.455,1.455,0,0,1,.419-1.023,1.414,1.414,0,0,1,1.005-.421h3.387V26.861H37.868a1.414,1.414,0,0,1-1.005-.421,1.455,1.455,0,0,1-.419-1.023V21.528a1.455,1.455,0,0,1,.419-1.023,1.414,1.414,0,0,1,1.005-.421h7.7a1.414,1.414,0,0,1,1.005.421,1.455,1.455,0,0,1,.419,1.023v3.889a1.455,1.455,0,0,1-.419,1.023,1.414,1.414,0,0,1-1.005.421H42.179v2.944h3.387a1.414,1.414,0,0,1,1.005.421,1.455,1.455,0,0,1,.419,1.023v3.889a1.455,1.455,0,0,1-.419,1.023,1.414,1.414,0,0,1-1.005.421H42.179v2.944h7.235a.457.457,0,0,1,.325.137.477.477,0,0,1,.137.336ZM37.868,21.028h-.5v4.889h8.7V21.028h-8.2Zm0,9.722h-.5v4.889h8.7V30.75h-8.2Zm0,19.472h.5V45.333h-8.7v4.889h8.2Zm15.4,0h.5V45.333h-8.7v4.889h8.2Z" fill="#585858" stroke="#585858" stroke-width="1"/>
  <path id="Path_46" data-name="Path 46" d="M28.746,40.472v-.944h.924v.944Z" fill="#585858" stroke="#585858" stroke-width="1"/>
  <path id="Path_47" data-name="Path 47" d="M24.895,40.472v-.944h.924v.944Z" fill="#585858" stroke="#585858" stroke-width="1"/>
  <g id="Group_8" data-name="Group 8" clip-path="url(#clip-path)">
    <path id="Path_48" data-name="Path 48" d="M107.351,24.718c0-.009.007-.016,0-.025L103.138,5.005c0-.008-.01-.011-.013-.018s0-.015,0-.022-.014-.008-.02-.013a.118.118,0,0,0-.033-.021.109.109,0,0,0-.046-.009c-.008,0-.014-.006-.022,0s-.012.01-.019.012-.016,0-.023,0l-.057.036L76.291,19.65c-.008,0-.01.014-.016.02a.1.1,0,0,0-.026.033.1.1,0,0,0-.008.041c0,.009-.007.016-.005.025l4.21,19.616.006.056c0,.009.009.014.012.022s0,.015,0,.021.009,0,.012.007a.112.112,0,0,0,.089.05h.013s.007-.005.011-.006a.131.131,0,0,0,.035-.01L107.3,24.812l0,0a.119.119,0,0,0,.023-.023.073.073,0,0,0,.016-.02c0-.005.008-.007.01-.012s0,0,0,0A.159.159,0,0,0,107.351,24.718ZM80.642,39.194,76.481,19.8l26.4-14.562,4.155,19.391Z" fill="#585858"/>
    <path id="Path_49" data-name="Path 49" d="M117.743,33.939c0-.005,0-.011,0-.015s-.015-.011-.024-.017-.008-.017-.018-.022l-9.164-5.053s-.01,0-.014,0a.13.13,0,0,0-.03-.008s-.008-.006-.014-.006-.009.005-.014.006a.136.136,0,0,0-.029.008s-.011,0-.015,0L85,41.746c-.01.006-.013.017-.021.026s-.019.01-.024.019,0,.008,0,.012a.093.093,0,0,0,0,.042.085.085,0,0,0,.006.04s0,.009,0,.013.013,0,.018.01.014.026.028.034l.206.105h0l8.953,4.946a.118.118,0,0,0,.059.015.124.124,0,0,0,.059-.015L117.5,34.19h0l.2-.111c.012-.007.016-.021.024-.031s.014,0,.018-.01,0-.011,0-.015a.092.092,0,0,0,.006-.04A.117.117,0,0,0,117.743,33.939Zm-3.7-1.431h0l.14-.082.986.545-2.822,1.552-.982-.541.025-.014.082-.046h0l.2-.116,2.369-1.293S114.037,32.509,114.038,32.509Zm-.982,1.88a.071.071,0,0,0-.006.025c0,.006-.007.009-.007.014v.036l-.034-.017s-.009,0-.013,0a.11.11,0,0,0-.036-.005Zm-2.135.921-.99-.543.035-.02h0l.195-.1h0l.76-.421.146.08.841.467Zm.71-.131a.083.083,0,0,0,0,.022c0,.006-.007.009-.007.014v.036l-.034-.017s-.009,0-.013,0a.1.1,0,0,0-.032-.006Zm-2.138.918-.989-.544.034-.02.194-.1h0l.759-.421.147.08.841.467Zm.71-.131a.1.1,0,0,0-.005.023c0,.006-.006.008-.006.013v.025l-.028-.016c-.006,0-.012,0-.018,0s-.006-.006-.01-.007Zm-2.132.918-.99-.543.034-.02h0l.2-.118.756-.408.146.074.842.473Zm.7-.108c0,.005-.006.008-.006.014v.025l-.029-.016s-.011,0-.017,0,0,0-.007-.005l.058-.031S108.771,36.771,108.77,36.776ZM98.09,42.389l-.984-.547.026-.014h0l.206-.118h0l.752-.408.149.076.838.465Zm.706-.114c0,.006-.006.009-.006.014v.028l-.02-.012c-.005,0-.012,0-.018,0a.1.1,0,0,0-.022-.009l.066-.036C98.794,42.264,98.8,42.269,98.8,42.275Zm-2.128.9-.987-.546.028-.015h0l.206-.118.749-.419.147.084h0l.842.468Zm.7-.116c0,.006-.006.01-.006.015V43.1l-.02-.012c-.005,0-.012,0-.017,0s-.008-.009-.013-.01l.055-.031S97.368,43.058,97.367,43.062Zm-2.128.9-.979-.549.019-.01h0l.206-.118.749-.419.146.084h0l.841.461Zm.71-.137a.108.108,0,0,0,0,.023c0,.006-.006.009-.006.014v.029l-.02-.012c-.005,0-.012,0-.018,0a.1.1,0,0,0-.028-.008Zm-1.987-.09h0l.841.461-.988.547-.989-.547.988-.546Zm-.12-.323.07-.039a.076.076,0,0,0,0,.02c0,.006-.006.01-.006.015v.032l-.028-.016c-.005,0-.012,0-.017,0S93.85,43.417,93.843,43.415ZM92.188,42.5l-.982-.548.021-.011v0h0l.2-.111h0l.756-.418.139.082h0l.846.455Zm.907-.247c0,.007,0,.012,0,.019s-.007.01-.007.016v.028l-.02-.012c-.005,0-.012,0-.017,0a.112.112,0,0,0-.026-.01Zm-3.146-.094-.988-.547.841-.461h0l.147-.08.147.08h0l.841.461Zm.906-.228c0,.006-.007.01-.007.016v.038l-.028-.016c-.005,0-.012,0-.018,0a.11.11,0,0,0-.022-.009l.073-.04S90.856,41.927,90.856,41.932Zm-.467-1.105.841-.461h0l.141-.079.146.079h0l.841.461-.988.552Zm19.042-8.772.007,0s0,0,0,0l.078.037.759.421-.984.552-.982-.548.021-.011,0,0h0l.2-.118.753-.417Zm-.1-.318.135-.074s0,.01,0,.013-.006.009-.006.014v.117l-.1-.06c-.006,0-.012,0-.017,0S109.332,31.738,109.327,31.737Zm1.293.767a.067.067,0,0,0-.008-.027c0-.006,0-.011,0-.016s-.008-.005-.012-.009a.084.084,0,0,0-.02-.019s0-.01-.01-.012l-.875-.486v-.05l1.073.592-.139.073v-.031C110.626,32.513,110.621,32.509,110.62,32.5Zm.818,1.122a.087.087,0,0,0-.008-.027c0-.005,0-.011,0-.015s-.009-.005-.013-.01a.1.1,0,0,0-.02-.019s0-.01-.01-.012l-.875-.479v-.057l.981.54v.1l-.047.028V33.64C111.444,33.635,111.439,33.631,111.438,33.626Zm-1.334.561-.981-.543.019-.011,0,0h0l.206-.118h0l.751-.413.146.08.083.046h0l.757.415Zm.92-.25s0,0,0,0a.087.087,0,0,0-.008.027c0,.005-.006.008-.006.014v.031L110.979,34s-.01,0-.015,0a.1.1,0,0,0-.031-.007Zm-2.349,1.037-.984-.547.027-.014h0l.2-.11h0l.753-.414.147.08h0l.846.461Zm.92-.246h0a.091.091,0,0,0-.008.027c0,.005-.006.008-.006.013V34.8l-.031-.017c-.006,0-.011,0-.016,0a.085.085,0,0,0-.024-.008Zm-2.342,1.034-.984-.547.027-.014h0l.2-.11h0l.754-.415.149.076.838.465Zm.921-.25s0,0,0,.006a.127.127,0,0,0-.009.026c0,.005-.005.008-.005.012v.03l-.034-.017s-.009,0-.012,0a.107.107,0,0,0-.032-.006Zm-2.343,1.038L104.842,36l.026-.014h0l.206-.118h0l.758-.408.15.077.839.465Zm.913-.247h0a.1.1,0,0,0-.008.028c0,.005-.006.008-.006.013v.03l-.034-.017s-.009,0-.013,0l-.022-.007Zm-2.335,1.034-.993-.546.028-.014h0l.206-.118h0l.755-.418.139.082h0s0,0,0,0l.842.468Zm.914-.249s0,0,0,.005a.123.123,0,0,0-.008.026c0,.005-.005.008-.005.012v.025l-.031-.017s-.01,0-.015,0-.007-.008-.012-.01Zm-2.343,1.036-.986-.55.019-.01s0,0,0,0h0l.206-.118h0l.755-.418.139.082h0a0,0,0,0,1,0,0l.847.461Zm.914-.25s0,0,0,0a.071.071,0,0,0-.009.027c0,.005-.006.008-.006.013v.025l-.031-.017s-.01,0-.015,0-.009-.008-.015-.009ZM101.558,38.9l-.985-.544.018-.01h0l.207-.118h0l.755-.418.139.082h0a0,0,0,0,0,0,0l.84.461Zm.906-.227c0,.006-.007.009-.007.015v.038l-.031-.017s-.01,0-.014,0a.119.119,0,0,0-.028-.008l.079-.044C102.461,38.666,102.465,38.673,102.464,38.678Zm-2.334,1.015-.99-.548.025-.014h0l.2-.11h0l.757-.419.147.084h0l.84.461Zm.906-.228c0,.006-.007.01-.007.016v.038L101,39.5c-.005,0-.011,0-.015,0a.106.106,0,0,0-.023-.008l.074-.041S101.036,39.46,101.036,39.465ZM98.707,40.48l-.993-.546.028-.015.206-.111h0l.757-.419.139.082h0v0l.841.461Zm.908-.245a.116.116,0,0,0,0,.02s-.006.008-.006.013V40.3l-.033-.017s-.009,0-.014,0a.089.089,0,0,0-.026-.006Zm-2.336,1.033-.99-.548.025-.014h0l.206-.118h0l.756-.412.141.079h0l.848.468Zm.906-.227c0,.006-.007.01-.007.015v.036l-.033-.017s-.009,0-.013,0a.1.1,0,0,0-.022-.007l.073-.04C98.181,41.031,98.185,41.036,98.185,41.041Zm-2.328,1.014-.987-.546.028-.015v0h0l.2-.118.753-.417.14.082h0s0,0,0,0l.842.468Zm.908-.246a.126.126,0,0,0,0,.02c0,.005-.006.008-.006.013v.025l-.028-.016c-.005,0-.012,0-.018,0s0-.005-.008-.006Zm-1.585-1.89h0l.842.467-.982.541-.991-.543.035-.02.2-.111.757-.413ZM95.05,39.6l.085-.047h0a.094.094,0,0,0-.008.027c0,.005-.006.008-.006.013v.028l-.023-.012c-.005,0-.011,0-.016,0A.1.1,0,0,0,95.05,39.6Zm1.558-.474.841.467-.988.541-.991-.543.033-.019.2-.1v0h0l.753-.421Zm-.126-.316.081-.045h0a.094.094,0,0,0-.008.027c0,.005-.006.008-.006.013v.031l-.031-.017c-.005,0-.011,0-.016,0A.071.071,0,0,0,96.482,38.815Zm1.545-.467h0v0l.84.461-.98.54-.991-.543.035-.02h0l.2-.1h0l.757-.419ZM97.9,38.03l.082-.045a.108.108,0,0,0,0,.024c0,.006-.007.01-.007.016v.029l-.02-.012c-.005,0-.012,0-.018,0A.1.1,0,0,0,97.9,38.03Zm1.556-.468h0l.839.46-.987.54-.98-.537.019-.009v0h0l.206-.118.749-.419Zm-.125-.321.079-.044a.107.107,0,0,0,0,.024c0,.006-.007.01-.007.016v.032l-.028-.016c-.005,0-.012,0-.017,0A.147.147,0,0,0,99.333,37.241Zm1.545-.467h0a0,0,0,0,0,0,0l.841.461-.982.551-.982-.548.021-.011,0,0h0l.2-.118.754-.416Zm-.119-.32.078-.043v0a.083.083,0,0,0-.008.026c0,.006-.007.01-.007.014v.022l-.019-.012c-.006,0-.012,0-.017,0A.1.1,0,0,0,100.759,36.453Zm1.549-.466h0l.843.468-.99.547-.987-.546.028-.015h0l.207-.118.748-.419Zm-.11-.319.059-.033c0,.006,0,.012,0,.017s-.006.009-.006.015v.025l-.029-.016s-.012,0-.018,0S102.2,35.669,102.2,35.669Zm1.533-.469h0l.842.468-.982.547-.987-.546.028-.015a0,0,0,0,1,0,0h0l.2-.116.757-.414Zm-.118-.315.066-.036c0,.006,0,.012,0,.017s-.007.009-.007.015v.027l-.022-.012s-.011,0-.016,0A.134.134,0,0,0,103.613,34.885Zm1.548-.472.842.468-.989.547-.987-.546.028-.015h0l.206-.118h0l.75-.413Zm-.116-.316.063-.035c0,.006,0,.012,0,.017s-.007.01-.007.015v.031l-.031-.017s-.01,0-.015,0S105.049,34.1,105.045,34.1Zm1.535-.466h0l0,0,.84.461-.981.546-.987-.546.028-.015h0l.2-.111h0l.756-.418Zm-.114-.321.064-.035s0,.01,0,.015-.007.01-.007.016v.028l-.02-.012s-.011,0-.017,0A.165.165,0,0,0,106.466,33.309Zm.884,1.085a.138.138,0,0,0,0,.02c0,.005-.007.008-.007.013v.036l-.034-.017s-.009,0-.013,0a.1.1,0,0,0-.026-.006Zm-1.42.785a.084.084,0,0,0,0,.022c0,.005-.007.008-.007.014v.036l-.034-.017s-.008,0-.012,0a.1.1,0,0,0-.032-.006Zm-1.43.79a.071.071,0,0,0,0,.02c0,.005-.006.008-.006.013v.022l-.02-.012c-.006,0-.012,0-.018,0s-.007-.007-.012-.009Zm-1.431.807c0,.006-.007.009-.007.015v.022l-.02-.012s-.011,0-.017,0-.006-.006-.01-.008l.051-.029S103.069,36.771,103.069,36.775Zm-1.422.78c0,.006-.007.009-.007.015V37.6l-.02-.012c-.006,0-.012,0-.018,0s-.009-.009-.016-.01l.06-.034C101.644,37.546,101.648,37.551,101.647,37.555Zm-1.418.765a.084.084,0,0,0,0,.022c0,.006-.006.009-.006.015v.032l-.028-.016c-.006,0-.012,0-.018,0a.111.111,0,0,0-.021-.009Zm-1.428.787a.083.083,0,0,0-.005.024c0,.005-.006.008-.006.014v.028l-.02-.012c-.005,0-.012,0-.018,0a.085.085,0,0,0-.028-.008Zm-1.434.81c0,.006-.006.01-.006.014v.028l-.023-.012s-.01,0-.016,0a.1.1,0,0,0-.022-.008l.066-.036C97.365,39.908,97.368,39.913,97.367,39.918Zm-1.417.764a.086.086,0,0,0-.005.024c0,.005-.006.008-.006.013v.022l-.02-.012c-.005,0-.012,0-.018,0s-.008-.009-.014-.01ZM108.7,33.651l.073-.04s0,.009,0,.014-.007.01-.007.016v.037l-.031-.017c-.005,0-.01,0-.015,0A.124.124,0,0,0,108.7,33.651Zm1.429-.787.164-.092h0a.087.087,0,0,0-.008.027s-.006.008-.006.013v.121l-.113-.061c-.006,0-.011,0-.016,0A.064.064,0,0,0,110.125,32.864Zm-1.272.442-.989.547-.981-.543.019-.011s0,0,0,0h0l.207-.118.748-.419.147.084h0Zm-.958-.785.063-.035c0,.005,0,.01,0,.015s-.007.01-.007.016v.032l-.028-.016c-.006,0-.013,0-.017,0S107.9,32.523,107.895,32.521Zm-.841.2-.987-.54.84-.46h0l.144-.083.138.082h0a0,0,0,0,1,0,0l.845.46Zm-.442.247-.987.54-.981-.54.84-.461,0,0h0l.138-.082.145.083h0Zm-1.422.787-.987.54-.987-.54.839-.46h0l.145-.083.145.083h0Zm-1.428.787-.988.541-.983-.541.842-.467h0l.141-.08.146.08Zm-1.422.787-.988.541-.988-.541.841-.467h0l.146-.083.145.083h0Zm-1.429.776-.988.551-.981-.551.84-.455v0h0l.138-.082.145.083h0Zm-1.422.788-.987.546-.987-.546.839-.455h0l.146-.083.146.083h0Zm-1.429.787-.987.546-.981-.546.839-.455v0h0l.138-.082.145.083h0Zm-1.422.787-.987.546-.987-.546.839-.455h0l.146-.083.146.083h0Zm-1.427.787-.989.546-.983-.546.842-.468.141-.075.15.077Zm-1.422.787-.99.547-.989-.547.838-.465L92.8,39.5l.151.077Zm-.076.3h0a.1.1,0,0,0-.008.028c0,.005-.006.008-.006.013v.025l-.028-.016c-.005,0-.012,0-.017,0s-.007-.007-.012-.008Zm-1.429.783s0,0,0,0a.093.093,0,0,0-.008.028c0,.005-.006.008-.006.013V41.2l-.02-.012c-.005,0-.012,0-.018,0a.11.11,0,0,0-.026-.009Zm.335.044.035-.02h0l.2-.11h0l.75-.42.146.084h0l.846.467-.994.541Zm1.9.3a.072.072,0,0,0,0,.019c0,.006-.006.009-.006.014v.025l-.028-.016c-.005,0-.012,0-.017,0s-.005-.006-.009-.007Zm-1.058.809,0,0h0l.2-.118.754-.418.147.084h0l.841.461-.989.552-.982-.548Zm1.871.311a.084.084,0,0,0,0,.021c0,.006-.006.009-.006.015v.025l-.028-.016c-.005,0-.012,0-.017,0s-.006-.006-.009-.007Zm3.194-1.538.028-.015h0l.206-.118h0l.752-.408.149.076.838.465-.989.547Zm1.426-.789.026-.014h0l.2-.11h0l.753-.414.146.079h0l.841.461-.988.546Zm1.431-.782.019-.011,0,0h0l.206-.118h0l.75-.413.147.079h0l.84.461-.988.547Zm1.424-.789.019-.01h0l.206-.118h0l.751-.413.146.079h0l.841.461-.989.551Zm1.417-.779.035-.02.206-.118h0l.751-.413.145.079h0l.842.473-.989.542Zm1.425-.789.031-.018h0l.206-.118h0l.751-.408.146.074.842.473-.989.542Zm5.533-6.195h0l.14-.082,2.414,1.332-2.135,1.171-.987-.543.031-.02h0l.407-.214c.014-.007.018-.021.028-.032s.013,0,.018-.011,0-.01,0-.013a.169.169,0,0,0,0-.082c0-.005,0-.01,0-.014s-.018-.012-.026-.02-.009-.017-.019-.023l-1.252-.69,1.376-.757Zm-1.429-.786h0l.146-.084.988.552-2.418,1.335-.989-.552.847-.462s0,0,0,0h0l.195-.116h0l1.224-.67Zm-1.282-.867.989.547-.989.547-.99-.547Zm-1.424.783.139.082h0s0,0,0,0l.848.468-.989.547-.99-.548Zm-1.428.787.147.084h0l.841.461-.989.551-.983-.552Zm-1.422.787.146.084h0l.839.46-.987.54-.988-.541Zm-1.429.787.147.084h0l.84.46-.988.54-.982-.541Zm-1.422.788.147.084h0l.84.46-.988.54-.987-.541ZM99.924,34l.146.08.841.467-.988.541-.982-.541ZM98.5,34.78l.147.084h0l.841.467-.988.541-.988-.542Zm-1.43.788.147.084h0l.839.455-.988.551-.983-.552Zm-1.422.787.147.084h0l.839.455-.987.546-.988-.547Zm-1.429.787.147.084h0l.839.455-.987.545-.982-.546Zm-1.422.787.147.084h0l.839.455-.987.546-.988-.547Zm-1.426.786.149.076.838.465-.989.546-.982-.546Zm-1.421.787.149.076.838.465-.99.547-.988-.547Zm-1.43.782.146.079h0l.841.461-.988.551-.983-.552Zm-2.758,1.809-.263-.146.259-.142v.259c0,.006.005.009.006.014S85.762,42.09,85.763,42.094Zm1.218.448L85.993,42v-.194l.988.547Zm-.871-.928.988-.541.146.079h0l.841.461-.988.547Zm1.082,1.27-.073-.041a.115.115,0,0,0,.036-.008l.033-.017v.036c0,.006.005.009.006.014S87.19,42.878,87.192,42.884Zm1.211.446-.981-.54V42.6l.981.546Zm-.864-.928.841-.461h0l.141-.08.146.08h0l.841.461-.988.546Zm1.075,1.267-.072-.039a.12.12,0,0,0,.036-.01l.031-.017v.038c0,.006.005.009.006.014S88.612,43.665,88.613,43.669Zm1.219.448-.988-.541v-.194l.988.547Zm-.871-.928.841-.461h0l.205-.111h0l.75-.419.147.084h0l.839.455-1.8,1Zm1.081,1.27-.073-.04a.119.119,0,0,0,.038-.01l.031-.017v.037c0,.006.005.009.006.014S90.041,44.453,90.042,44.458Zm1.212.446-.981-.54v-.194l.981.546Zm-.864-.929,1.651-.907h0l.206-.118h0L93,42.531l.14.082h0v0l.841.461-2.616,1.445Zm2.094.19c0,.007,0,.012,0,.019s-.006.009-.006.014v.032l-.028-.016c-.005,0-.012,0-.018,0s-.008-.008-.013-.01ZM91.394,45.2a.131.131,0,0,0,.036-.009l.031-.017v.031c0,.006.005.009.006.014a.078.078,0,0,0,.005.023Zm1.289.487-.988-.547v-.188l.988.546Zm-.872-.929.576-.322.146.084h0l.841.461-.577.322Zm1.009,1.23a.109.109,0,0,0,.037-.01l.031-.017V46c0,.006.005.009.006.014a.089.089,0,0,0,.008.027Zm1.285.48-.981-.54V45.74l.981.55Zm.118-.376-.984-.552.429-.238.206-.111h0l1.223-.669v0h0l.2-.118.554-.3.14.083h0v0l.841.461Zm2.733-1.222v.159l-2.616,1.439v-.181l2.616-1.445Zm.223.262a.083.083,0,0,0,.006-.025c0-.006.007-.009.007-.014v-.031l.031.017a.119.119,0,0,0,.036.009Zm-.887-1.273.229-.126h0l.206-.118.549-.3.139.082h0v0l.845.46-.987.54Zm2.093.23v.152l-.988.547V44.6l.988-.541Zm.223.255a.115.115,0,0,0,.005-.024c0-.006.006-.009.006-.014v-.03l.033.017a.111.111,0,0,0,.033.008Zm-.892-1.272.233-.126v0h0l.2-.118.554-.3.14.083h0v0l.84.461-.981.54Zm2.091.23v.152L98.825,44v-.194l.981-.54Zm.219.261a.155.155,0,0,0,.01-.031s.006-.008.006-.013v-.03l.034.017a.106.106,0,0,0,.036.009ZM99.14,42.29l.23-.127h0l.206-.118,1.221-.668h0l.2-.1h0l1.219-.681.206-.1a0,0,0,0,0,0,0h0l1.223-.676h0l.2-.111h0l1.221-.675h0l.207-.111h0l1.223-.676h0l.2-.111h0l1.22-.675h0l.206-.111h0l.544-.307.146.084h0l.846.461-9.539,5.271Zm10.648-4.49v.158l-9.541,5.259v-.181l9.541-5.271Zm.224.259a.167.167,0,0,0,0-.022c0-.006.006-.009.006-.014V38l.02.012a.116.116,0,0,0,.036.01Zm-.9-1.271.237-.132.2-.1s0,0,0,0h0l.551-.314.145.083h0l.842.468-.989.547Zm2.094.224v.159l-.988.552V37.53l.988-.547Zm.22.265a.073.073,0,0,0,.009-.029c0-.005.006-.008.006-.013v-.025l.028.016a.126.126,0,0,0,.034.009ZM110.542,36l.229-.129.206-.105s0,0,0,0h0l.555-.3.149.076.838.465-.99.547Zm2.1.224v.165l-.988.547v-.194l.988-.546Zm.23.259c0-.005,0-.011,0-.015s.007-.009.007-.014v-.028l.02.012a.115.115,0,0,0,.038.011Zm-.9-1.269.231-.127h0l.2-.111.555-.3.149.076.838.465-.989.547Zm2.088.222V35.6l-.988.547v-.194l.988-.547Zm.225.265a.076.076,0,0,0,0-.021c0-.006.007-.009.007-.014v-.029l.02.012a.1.1,0,0,0,.043.012Zm-.889-1.275,2.063-1.131h0l.147-.084.981.545-2.211,1.217Zm3.309-.288-2.211,1.222v-.194l2.211-1.216Zm.218.109a.088.088,0,0,0,.01-.031c0-.006.007-.009.007-.014V33.95l.265.144Z" fill="#585858"/>
    <path id="Path_50" data-name="Path 50" d="M115.246,41.826c-.005-.009-.017-.011-.025-.017s-.009-.018-.018-.023l-4.073-2.244s-.011,0-.015,0a.142.142,0,0,0-.029-.008c-.006,0-.009-.006-.014-.006s-.01.005-.014.006a.135.135,0,0,0-.03.008s-.01,0-.014,0l-6.588,3.636c-.01,0-.012.016-.018.023s-.02.008-.025.017,0,.011,0,.015a.142.142,0,0,0,0,.082c0,.005,0,.01,0,.015s.013,0,.018.01.012.024.024.031l.165.092h0l3.9,2.153a.117.117,0,0,0,.059.015.122.122,0,0,0,.059-.015l6.43-3.544h0l.165-.092c.013-.007.016-.021.024-.031s.014,0,.019-.01,0-.01,0-.015a.081.081,0,0,0,.006-.041.084.084,0,0,0-.006-.042S115.249,41.831,115.246,41.826Zm-6.7,3.563-3.668-2.023,6.189-3.415,3.674,2.023Z" fill="#585858"/>
    <path id="Path_51" data-name="Path 51" d="M115.246,41.826l.864-.5,0,0Zm-.025-.017-.719.695.055.057.064.048Zm-.018-.023-.483.876.01.005Zm-4.073-2.244-.513.859.015.009.015.008Zm-.015,0,.479-.878-.063-.035-.068-.025Zm-.029-.008.149-.989-.022,0-.022,0Zm-.028,0-.119-.993-.015,0-.016,0Zm-.03.008-.348-.937-.042.016-.041.019Zm-.014,0,.483.875.041-.023.039-.027Zm-6.588,3.636.451.892.016-.008.016-.009Zm-.018.023.633.774.062-.051.053-.06Zm-.025.017-.862-.507,0,0Zm0,.015-.886-.464-.008.015-.008.016Zm0,.082.944-.33-.018-.053-.025-.05Zm0,.015-.886.464.024.047.029.044Zm.018.01.771-.637-.021-.025-.022-.024Zm.024.031-.491.871,0,0Zm.165.092-.487.873.227.127h.26Zm0,0v-1l-.483,1.876Zm3.9,2.153.506-.863-.011-.006-.012-.006Zm.118,0,.473.881.009-.005Zm6.43-3.544.482.876-.482-1.876Zm0,0v1h.26l.227-.127Zm.165-.092.487.874,0,0Zm.024-.031-.727-.686-.023.024-.02.025Zm.019-.01.832.554.042-.063.032-.069Zm0-.015-.9-.432-.016.033-.013.034Zm0-.082.909-.418-.05-.107-.072-.092Zm-6.7,3.549-.483.876.483.266.483-.266Zm-3.668-2.023-.483-.876-1.587.876,1.587.875Zm6.189-3.415.482-.876-.482-.266-.483.266Zm3.674,2.023.483.876,1.59-.876-1.59-.876Zm1.363-.656a1.024,1.024,0,0,0-.393-.379l-.026-.014.009,0a.97.97,0,0,1,.124.079l-1.2,1.6a1.04,1.04,0,0,0,.136.087l.017.009-.006,0-.014-.008a.974.974,0,0,1-.37-.36Zm-.168-.2a.936.936,0,0,1,.127.162c.009.014.015.026.016.026s0-.007-.01-.016a1.023,1.023,0,0,0-.4-.381l-.946,1.762a.977.977,0,0,1-.377-.36l-.006-.01s.009.016.02.033a.98.98,0,0,0,.135.174Zm-.254-.2-4.074-2.244-.965,1.752,4.073,2.244Zm-4.044-2.227a.985.985,0,0,0-.212-.1,1.018,1.018,0,0,0-.287-.047h-.032c.015,0,.047,0,.087,0a.985.985,0,0,1,.4.118l-.958,1.756a1.011,1.011,0,0,0,.4.12l.055,0h.012a.975.975,0,0,1-.108-.008,1,1,0,0,1-.172-.038,1.047,1.047,0,0,1-.1-.039,1.011,1.011,0,0,1-.106-.055Zm-.179-.081a1.119,1.119,0,0,0-.228-.059l-.3,1.978a.861.861,0,0,1-.1-.021.734.734,0,0,1-.07-.023Zm-.272-.065a.99.99,0,0,1,.322.091c.032.015.056.029.069.036l.014.009-.038-.022a.98.98,0,0,0-.1-.047,1.006,1.006,0,0,0-.388-.078v2a.993.993,0,0,1-.22-.025,1.015,1.015,0,0,1-.162-.052,1,1,0,0,1-.094-.045l-.035-.02h0l.016.009c.013.008.039.022.072.038a1.015,1.015,0,0,0,.329.093Zm-.119-.011a1.015,1.015,0,0,0-.377.073,1.03,1.03,0,0,0-.094.044l-.042.023,0,0,.009-.005c.008-.005.029-.017.056-.03a1.01,1.01,0,0,1,.121-.049.977.977,0,0,1,.2-.044l.237,1.986a1,1,0,0,0,.2-.045,1.021,1.021,0,0,0,.124-.051l.06-.032.01-.006h0l-.038.021c-.021.011-.052.026-.092.042a.986.986,0,0,1-.368.071Zm-.164.017a1.137,1.137,0,0,0-.228.059l.7,1.875a.733.733,0,0,1-.07.023.849.849,0,0,1-.1.021Zm-.311.094a.993.993,0,0,1,.352-.094c.038,0,.067,0,.082,0H111a1.01,1.01,0,0,0-.55.175l1.127,1.652a.988.988,0,0,1-.423.163.951.951,0,0,1-.116.009h-.024c.016,0,.047,0,.086,0a1.008,1.008,0,0,0,.359-.1Zm-.067.029L103.943,42.3l.966,1.751,6.588-3.636Zm-6.555,3.619a1.021,1.021,0,0,0-.419.393l-.016.028s0-.005.009-.016a.944.944,0,0,1,.11-.153l1.5,1.326a.958.958,0,0,0,.119-.164.172.172,0,0,0,.01-.017l0,0h0l-.012.021a.982.982,0,0,1-.4.372Zm-.2.142a.963.963,0,0,1,.149-.1l.015-.008,0,0h0l-.02.01a1.026,1.026,0,0,0-.4.385l1.723,1.015a.972.972,0,0,1-.381.366l-.012.007.028-.015a1.074,1.074,0,0,0,.161-.109Zm-.255.288a.985.985,0,0,0-.09.2,1.057,1.057,0,0,0-.047.288v.052h0v-.019c0-.016,0-.048,0-.089a1,1,0,0,1,.11-.379l1.772.927a1.03,1.03,0,0,0,.084-.22.929.929,0,0,0,.027-.166c0-.021,0-.04,0-.055v-.037a.089.089,0,0,0,0-.019v0h0s0,.007,0,.014v.031c0,.025,0,.064-.009.111a.9.9,0,0,1-.038.169.993.993,0,0,1-.087.2Zm-.04.085a1.076,1.076,0,0,0-.1.354c0,.043,0,.078,0,.1v.024h2v0c0,.011,0,.039,0,.075a.938.938,0,0,1-.089.314Zm-.1.473c0-.025,0,.049,0,.118a1.075,1.075,0,0,0,.1.355l1.8-.865a.937.937,0,0,1,.089.315c0,.036,0,.063,0,.074v0Zm.062.37a.98.98,0,0,1-.054-.274c0-.03,0-.054,0-.066v-.011s0,.022,0,.045a.921.921,0,0,0,.006.1,1.011,1.011,0,0,0,.109.352l1.772-.927a.989.989,0,0,1,.106.345.866.866,0,0,1,.006.1c0,.022,0,.039,0,.041v-.015a.565.565,0,0,0,0-.07,1,1,0,0,0-.055-.282Zm.113.24a1.012,1.012,0,0,0,.182.205.985.985,0,0,0,.182.125,1,1,0,0,0,.126.057l.054.018-.018-.006c-.016-.006-.048-.017-.087-.034a.988.988,0,0,1-.316-.225l1.456-1.371a1.015,1.015,0,0,0-.326-.231c-.04-.018-.073-.03-.091-.036l-.023-.007.048.017a.954.954,0,0,1,.122.055.992.992,0,0,1,.356.323Zm.08.093a.9.9,0,0,1-.082-.116l0-.008.017.028a1.034,1.034,0,0,0,.374.361l.983-1.742a.956.956,0,0,1,.346.333l.009.015,0,0h0l-.01-.017a1.009,1.009,0,0,0-.093-.133Zm.308.268.165.092.974-1.747-.165-.092Zm.652.218h0v-2h0Zm-.482-.124,3.9,2.153.966-1.751-3.9-2.153Zm3.879,2.14a1.114,1.114,0,0,0,.564.152v-2a.889.889,0,0,1,.447.122Zm.564.152a1.119,1.119,0,0,0,.532-.134l-.947-1.762a.879.879,0,0,1,.415-.1Zm.541-.139,6.43-3.544-.965-1.752-6.43,3.544Zm5.948-4.42v1h0v-2h0Zm.487.873.165-.092-.974-1.747-.165.092Zm.169-.094a1.025,1.025,0,0,0,.374-.361l.017-.028c0-.005,0,0,0,.008a.893.893,0,0,1-.082.116l-1.541-1.274a1.044,1.044,0,0,0-.094.133l-.01.017h0l0,0,.009-.015a.966.966,0,0,1,.346-.333Zm.261-.217a.991.991,0,0,1-.316.225c-.039.017-.07.028-.087.034l-.018.006.054-.018a1.064,1.064,0,0,0,.127-.057,1.026,1.026,0,0,0,.182-.125,1.009,1.009,0,0,0,.181-.205l-1.665-1.109a.994.994,0,0,1,.356-.323.95.95,0,0,1,.122-.055l.049-.017-.023.007a.916.916,0,0,0-.092.036,1,1,0,0,0-.325.231Zm.2-.274a.946.946,0,0,0,.062-.172,1.117,1.117,0,0,0,.027-.145c0-.041.005-.075.006-.1s0-.04,0-.045v0h0a.078.078,0,0,0,0,.013c0,.012,0,.037,0,.069a.973.973,0,0,1-.067.307l-1.861-.731a1.023,1.023,0,0,0-.069.314c0,.033,0,.06,0,.073v.014h0v-.043a.75.75,0,0,1,.006-.094.917.917,0,0,1,.026-.141.976.976,0,0,1,.06-.168Zm0,0a1.052,1.052,0,0,0,.1-.355,1,1,0,0,0,0-.118h-2v0c0-.011,0-.039,0-.074a.937.937,0,0,1,.089-.315Zm.1-.473a1.07,1.07,0,0,0-.1-.46l-1.817.837a.951.951,0,0,1-.082-.3c0-.036,0-.063,0-.074v0Zm-.219-.659a1.052,1.052,0,0,1,.123.2,1.034,1.034,0,0,1,.085.325c0,.029,0,.052,0,.054v0s0-.012,0-.022a.979.979,0,0,0-.011-.1.869.869,0,0,0-.039-.163.931.931,0,0,0-.086-.192l-1.729,1.005a.992.992,0,0,1-.122-.347.862.862,0,0,1-.01-.1.181.181,0,0,0,0-.022s0,.027,0,.057a1.02,1.02,0,0,0,.021.136,1.039,1.039,0,0,0,.066.2.99.99,0,0,0,.125.205Zm-7,3.291-3.668-2.023-.966,1.751,3.668,2.023Zm-3.668-.272,6.189-3.415-.966-1.751L104.4,42.49Zm5.224-3.414,3.674,2.023.965-1.752-3.675-2.023Zm3.674.271-6.2,3.415.966,1.751,6.195-3.415Z" fill="#585858"/>
    <path id="Path_52" data-name="Path 52" d="M123.036,38.388,97.54,53.213,81.075,43.644l25.5-14.819Zm1.635-.721L107.312,27.584l-4.47-22.029L103,5.465l-.184-.051a.843.843,0,0,0-.03-.1.736.736,0,0,0-.053-.123.762.762,0,0,0-.183-.22.835.835,0,0,0-.1-.076h0l0,0a.73.73,0,0,0-.217-.1h0l-.006,0-.37-.1h0a.848.848,0,0,0-.211-.029.836.836,0,0,0-.206.027.738.738,0,0,0-.227.086L74.5,20.3l0,0a.719.719,0,0,0-.128.1H74.3l-.138.278a.751.751,0,0,0-.048.123h0l0,.008a.747.747,0,0,0-.026.2c0,.015,0,.031,0,.048l-.183.106.2.052,4.572,22.493v0a.767.767,0,0,0,.088.226.834.834,0,0,0,.077.117h0l.005.006a.828.828,0,0,0,.182.169v.306a.751.751,0,0,0,.037.228.865.865,0,0,0,.072.17v0l0,0,0,0a.822.822,0,0,0,.124.171.747.747,0,0,0,.165.137h0l.009.005L82.6,47.1h0l14.513,8.446h0a.829.829,0,0,0,.838,0h0l26.708-15.529h0a.749.749,0,0,0,.2-.168.786.786,0,0,0,.1-.135.818.818,0,0,0,.085-.193.742.742,0,0,0,.036-.226v-.9a.771.771,0,0,0-.02-.169c0-.018-.007-.034-.01-.048a.762.762,0,0,0-.093-.227.778.778,0,0,0-.115-.139l-.006-.006a.743.743,0,0,0-.166-.134ZM105.886,27.81l-25.6,14.877L75.974,21.428l25.6-14.877Z" fill="#585858" stroke="#585858" stroke-width="1"/>
  </g>
  <path id="Path_53" data-name="Path 53" d="M179.453,48.7,169.137,8.384a2.306,2.306,0,0,0-.235-.56,1.527,1.527,0,0,0-.41-.448,1.231,1.231,0,0,0-.586-.336,1.173,1.173,0,0,0-.587-.168L144.634,4.8a2.98,2.98,0,0,0-.7.056,1.146,1.146,0,0,0-.528.28,1.013,1.013,0,0,0-.293.392v.056c1.641,10.7,6.976,45.584,7.093,46.424a1.814,1.814,0,0,0,1.817,1.624c.821,0,16.12-2.016,27.316-3.528v-.056a1.093,1.093,0,0,0,.176-.616A3.036,3.036,0,0,0,179.453,48.7Zm-11.665-.336a2.661,2.661,0,0,1-.351.952,2.14,2.14,0,0,1-.7.728,2.106,2.106,0,0,1-1,.336,2.531,2.531,0,0,1-1.114-.112,3.322,3.322,0,0,1-1-.5,2.679,2.679,0,0,1-.762-.84,2.617,2.617,0,0,1-.41-1.12,3.93,3.93,0,0,1,0-1.176,2.517,2.517,0,0,1,1.114-1.624,2.977,2.977,0,0,1,1-.336,2.277,2.277,0,0,1,1.055.112,3.01,3.01,0,0,1,.938.5,3.622,3.622,0,0,1,.762.84,3.377,3.377,0,0,1,.411,1.064A2.73,2.73,0,0,1,167.788,48.368Zm-16.53-5.1-5.8-36.344L167.437,8.72l8.089,32.48Zm.762,10.808a2.26,2.26,0,0,1-2.286-2.016c-.117-.784-5.217-34.328-6.976-45.7L142,7.992c0,.056-.058.112-.058.168a.2.2,0,0,1-.059.168v.336l6.448,44.688a1.831,1.831,0,0,0,.293.784,2.716,2.716,0,0,0,.528.616,2.018,2.018,0,0,0,.7.336,2.083,2.083,0,0,0,.821.112l25.03-3.584h.234l2.638-.84h-.058a.309.309,0,0,0,.234-.112C169.606,51.9,152.9,54.08,152.02,54.08Zm26.437-3.3h0Z" fill="#585858"/>
  <path id="Path_54" data-name="Path 54" d="M238.47,53.75H202.3a2.374,2.374,0,0,1-2.47-2.455V8.7A2.374,2.374,0,0,1,202.3,6.25h36.17A2.377,2.377,0,0,1,240.94,8.7v42.59a2.375,2.375,0,0,1-2.47,2.455Zm-18.085-1.64a1.64,1.64,0,1,0-1.645-1.61,1.763,1.763,0,0,0,1.645,1.61Zm15.62-40.945h-31.24V47.2h31.24Z" fill="#585858" fill-rule="evenodd"/>
</svg>
