<svg id="Group_7" data-name="Group 7" xmlns="http://www.w3.org/2000/svg" width="60" height="60" viewBox="0 0 60 60">
  <rect id="Rectangle_6" data-name="Rectangle 6" width="59" height="59" transform="translate(0.5 0.5)" fill="none" stroke="#8d8d8d" stroke-width="1"/>
  <path id="Path_35" data-name="Path 35" d="M36.97,7.459,36.958,7.3l-.335-.095L32,5.9l-.127-.036-.128.031L14.133,10.182l-.325.079-.051.33-1.446,9.3a8.146,8.146,0,0,0,.3,5.423,4.99,4.99,0,0,0,1.713,2.007c-2.4,11.985.743,25.22.8,25.446Zm0,0,1.542.819.242.128.022.273.688,8.452.028.34-.307.15-1.94.947-7.28,4.508a34.044,34.044,0,0,0-.686,5.625c-.291,4.17-.526,11.161-.413,22.787h0l0,.233,0,.232-.176.152-.186.16a12.078,12.078,0,0,1-7.37,2.617,11.424,11.424,0,0,1-5.5-1.446h0l-.218-.119-.194-.106-.052-.215-.054-.223ZM14.451,20.284l0-.017,0-.018,1.3-8.324,7.432-1.81a2.29,2.29,0,0,1,.869.557,1.769,1.769,0,0,1,.359,1.709l0,.016,0,.016-.009.061,0,.015V12.5c0,.042-.211,2.29-.583,4.807-.186,1.259-.412,2.577-.673,3.717a10.4,10.4,0,0,1-.83,2.54,6.248,6.248,0,0,1-6.421,2.24,2.585,2.585,0,0,1-1.13-1.051C14.292,23.985,13.914,22.622,14.451,20.284Zm13.875,1.334-.11.068-.063.113,0,0c-1.06,1.126-7.568,9.067-4.485,30.639a8.844,8.844,0,0,1-6.521-.589c-.516-2.375-2.706-13.575-.735-23.841a8.105,8.105,0,0,0,1.025.067,8.285,8.285,0,0,0,4.914-1.664,8.683,8.683,0,0,0,1.805-1.741l.01-.014.009-.015a11.47,11.47,0,0,0,1.02-2.905c.286-1.18.528-2.52.725-3.8.386-2.492.605-4.77.645-5.2a3.717,3.717,0,0,0-.73-3.272l6-1.46,3.068.869.659,8.26Zm-1.171,6.391c-.32,4.176-.58,11.207-.475,22.994a9.939,9.939,0,0,1-.934.577C24.138,39.755,25.564,32.3,27.154,28.009Z" fill="#585858" stroke="#585858" stroke-width="1"/>
  <path id="Path_36" data-name="Path 36" d="M22.4,15.6a3.088,3.088,0,0,0-.778-2.439,3.648,3.648,0,0,0-2.387-1.193h0a3.515,3.515,0,0,0-3.938,2.9h0l-.4,3.259h0a3.088,3.088,0,0,0,.778,2.439,3.648,3.648,0,0,0,2.388,1.193h0c.13.013.259.019.389.019A3.475,3.475,0,0,0,22,18.86h0Zm0,0-.5-.061m.5.061h0l-.5-.06m0,0-.4,3.259m.4-3.259a2.588,2.588,0,0,0-.656-2.048,3.148,3.148,0,0,0-2.062-1.027A3.016,3.016,0,0,0,15.79,14.93l5.716,3.87m0,0a2.976,2.976,0,0,1-3.052,2.481q-.169,0-.341-.017a3.148,3.148,0,0,1-2.062-1.027,2.589,2.589,0,0,1-.656-2.048Zm-4.442-.433h0l.4-3.259h0a1.334,1.334,0,0,1,1.383-1.088c.052,0,.1,0,.161.008a1.439,1.439,0,0,1,.945.466h0a1.1,1.1,0,0,1,.283.87h0l-.4,3.259h0a1.358,1.358,0,0,1-1.544,1.08,1.438,1.438,0,0,1-.945-.466A1.1,1.1,0,0,1,17.064,18.367Z" fill="#585858" stroke="#585858" stroke-width="1"/>
  <path id="Path_37" data-name="Path 37" d="M18.261,22.757a1.064,1.064,0,0,0-1.09-1.035H15.1a1.036,1.036,0,1,0,0,2.07H17.17A1.064,1.064,0,0,0,18.261,22.757Z" fill="#585858" stroke="#585858" stroke-width="1"/>
  <path id="Path_38" data-name="Path 38" d="M21.3,21.722H19.231a1.036,1.036,0,1,0,0,2.07H21.3a1.036,1.036,0,1,0,0-2.07Z" fill="#585858" stroke="#585858" stroke-width="1"/>
  <path id="Path_39" data-name="Path 39" d="M18.94,23.862H16.872a1.036,1.036,0,1,0,0,2.07H18.94a1.036,1.036,0,1,0,0-2.07Z" fill="#585858" stroke="#585858" stroke-width="1"/>
  <path id="Path_40" data-name="Path 40" d="M40.617,14.391h0a1.128,1.128,0,0,1,1.475-.3h0l-.252.432.253-.432Zm0,0h0m0,0h0m0,0a1,1,0,0,0,.333,1.461h0l3.8,2.218h0a1.129,1.129,0,0,0,.571.153,1.109,1.109,0,0,0,.9-.454h0m-5.61-3.378,5.61,3.378m0,0a1,1,0,0,0-.333-1.461Z" fill="#585858" stroke="#585858" stroke-width="1"/>
  <path id="Path_41" data-name="Path 41" d="M45.107,7.82h0a1,1,0,0,0,.27-1.473h0A1.131,1.131,0,0,0,43.892,6.1h0l-3.6,2.3h0a1,1,0,0,0-.27,1.473h0a1.111,1.111,0,0,0,.878.421,1.131,1.131,0,0,0,.607-.176h0Z" fill="#585858" stroke="#585858" stroke-width="1"/>
  <path id="Path_42" data-name="Path 42" d="M46.809,10.372h0l-4.7.424h0a1.05,1.05,0,0,0-.981,1.138h0a1.1,1.1,0,0,0,1.191.922l4.7-.423h0A1.05,1.05,0,0,0,48,11.294h0A1.081,1.081,0,0,0,46.809,10.372Z" fill="#585858" stroke="#585858" stroke-width="1"/>
</svg>
